/* XPM */
static char *result[] = {
/* columns rows colors chars-per-pixel */
"50 50 92 1 ",
"  c #C6D96A",
". c #C5D968",
"X c #C4D868",
"o c #CADA68",
"O c #A9CF68",
"+ c #75BE68",
"@ c #A0CC68",
"# c #CADB68",
"$ c #C4D866",
"% c #C4D864",
"& c #C3D864",
"* c #C2D764",
"= c #C3D764",
"- c #C5D864",
"; c #C6D964",
": c #C5D867",
"> c #C4D865",
", c #C6D965",
"< c #C5D865",
"1 c #CBDA65",
"2 c #C3D865",
"3 c #BFD665",
"4 c #C0D765",
"5 c #BCD565",
"6 c #79BF65",
"7 c #83C365",
"8 c #C7D965",
"9 c #B6D465",
"0 c #5BB565",
"q c #6FBC65",
"w c #76BE65",
"e c #80C265",
"r c #BED665",
"t c #98CA65",
"y c #A1CC65",
"u c #CADA65",
"i c #C2D765",
"p c #CCDB65",
"a c #A2CD65",
"s c #54B365",
"d c #8BC565",
"f c #B4D365",
"g c #8EC665",
"h c #A8CF65",
"j c #CDDB65",
"k c #C9DA65",
"l c #B5D365",
"z c #A0CC65",
"x c #4AB065",
"c c #84C365",
"v c #59B565",
"b c #B0D165",
"n c #B9D565",
"m c #C8D965",
"M c #A9CF65",
"N c #83C265",
"B c #CEDB65",
"V c #94C865",
"C c #92C865",
"Z c #B7D465",
"A c #A3CD65",
"S c #C1D765",
"D c #71BD65",
"F c #5CB665",
"G c #BAD565",
"H c #97C965",
"J c #B3D365",
"K c #56B465",
"L c #92C765",
"P c #B9D465",
"I c #7FC165",
"U c #67B965",
"Y c #C3D867",
"T c #CBDB67",
"R c #A1CD67",
"E c #65B967",
"W c #BBD565",
"Q c #BED667",
"! c #72BD65",
"~ c #BDD665",
"^ c #C7D967",
"/ c #98C965",
"( c #C4D867",
") c #B6D365",
"_ c #5FB765",
"` c #75BE65",
"' c #8FC665",
"] c #9ACA65",
"[ c #AAD065",
"{ c #7CC065",
"} c #C9D965",
"| c white",
/* pixels */
" ....................................XoO+@#X......",
"$%%%%&&%%%%%%%%%%%%%%%%*=%%%%%%%%%%%%%%-;-%%%%%%%%",
":>>>>,<>>>>>>>>>>>>>>><11>>>>>>>>>>>>>>>>>>>>>>>>>",
":>>>234>>>>>>>>>>>>>>,5672>>>>>>>>>>>>>>>>>>>>>>>>",
":>2890q<>>>>>>>>>>>>>,5we2>>>>>>>>>>>>>><<>>>>>>>>",
":>><rty>>>>>>>>>>>>>>><1u>>>>>>>>>>>>>>2i2>>>>>>>>",
":>>><pu>>>>>>>>>>>>>>>>22>>>>>>>>>>>>21asd1i>>>>>>",
":>>>>i2>>>>>>>>>>>>>>>>>>>>>>>>>>>>>>28fgh82>>>>>>",
":>>>>>>>>>>>>>>>>>>>>>>>>>>>>>>>>>>>>>28jk2>>>>>>>",
":>>>>>>>>>>>>>>>>>>>>>>>>>>>>>>>>>>>>>>2i2>>>>>>>>",
":>>>>>>>>>>>>>>>>>>>>>>>>>>>>>22>>>>>>>>>>>>>>>>>>",
":>>>>>>>>>>>>>>>>>>>>>>>>>>>>,u8>>>>>>>>>>>>>>>>>>",
":>>>>>>>>>>>>>>>>>>>>>>>>>>>,5hl,>>>>>>>>>>>>>>>>>",
":>>>>>>>>>>>>>>><,<>>>>>>>>i1zxc1i>>>>>>>>>>>>>>>>",
":>>>>>>>>>>>>>i1tvt1i>>>>>>><rbn<>>>>>>>>>>>>>>>>>",
":>>>>>>>>>>>>>2mMNMm2>>>>>>>><k,>>>>>>>>>>>>>>>>>>",
":>>>>>>>>>>>>>>2mBm2>>>>>>>>>>22>>>>>>>>>>>>>>>>>>",
":>>>>>>>>>>>>>>>2i2>>>>>>>>>>>>>>>>>>>>>>>>>>>>>>>",
":>>>>>>>>>>>>>>>>>>>>>>>>>>>>>>>>>>>>>>>>>>>>>>>>>",
":>>>>>>>>>>>>>>>>>>>>>>>>>>>>>>>>>>>>>>>>>2>>>>>>>",
":>>>>>>>>>>>>>>>>>>>>>>>>>>>>>>>>>>>>>>>>,m,>>>>>>",
":>>>>>>>>>>>>>>>>>>>>>>>>>>>>>>>>>>>>>>><rfr<>>>>>",
":>>>>>>>>>>>>>>>>>>>>>>>>>>>>>>>>>>>>>>ipVxCpi>>>>",
":>>>>>>>>>>>>>>>>>>>>>>>>><<>>>>>>>>>>>>,ZAZ,>>>>>",
":>>>>>>>22>>>>>>>>>>>>>>>>S4>>>>>>>>>>>>>818>>>>>>",
":>>>>>>>8,>>>>>>>>>>>>>>><DF982>>>>>>>>>>222>>>>>>",
":>>>>>>iG5>>>>>>>>>>>>>>><zHr<>>>>>>>>>>>>>>>>>>>>",
":>>>>2mJKq,>>>>>>>>>>>>>>>up<>>>>>>>>>>>>>>>>>>>>>",
":>>>>><3yM<>>>>>>>>>>>>>>>2i>>>>>>>>>>>>>>>>>>>>>>",
":>>>>>><1k>>>>>>>>>>>>>>>>>>>>>>>>>>>>>>>>>>>>>>>>",
":>>>>>>>22>>>>>>>>>>>>>>>>>>>>>>>2i>>>>>>>>>>>>>>>",
":>>>>>>>>>>>>>>>>>>>>>>>>>>>>>>>>uj<>>>>>>>>>>>>>>",
":>>>>>>>>>>>>>>>>>>>>>>>>>>>>>>>,LeP82>>>>>>>>>>>>",
":>>>>>>>>>>>>>>>>>>>>>>>>>>>>>>>8IUlm2>>>>>>>>>>>>",
":>>>>>>>>>>>>>>>>>>>>>>>>>>>>>>>>8k<>>>>>>>>>>>>>>",
"Y>>>>>>>>>>>>>>>>>>>>>>>>>>>>>>>>>2>>>>>>>>>>>>>>2",
"T>>>>>>>>>>>>>>>>>>>>>>>>>>>>>>>>>>>>>>>>>>>>>>>>u",
"RS<>>>>>>>>>>>>>>>>>>>>>><,>>>>>>>>>>>>>>>>>>>><ia",
"EW,>>>>>>>>>>>>>>>>>>>>>>432>>>>>>>>>>>>>>>>>>>,rU",
"Q2>>>>>>>>>>>>>>>>>>>>>>,!vfm2>>>>>>>>>>>>>>>>>>>~",
"^>>>>>>>>>>>>>>>>>>>>>>><a/~,>>>>>>>>>>>>>>>>>>>>,",
"(>>>>><>>>>>>>>>>>>>>>>>>up<>>>>>>>>>>>>>>>>>>>>>>",
":>>>>>>>>>>>>>>>>>>>>>>>>2i>>>>>>>>>>>>>>>>>>>>>>>",
":>>28)_`,>>>>>>>>>>>>>>>>>>>>>>>>>>>>>>>>>>>>>>>>>",
":>>>,~']<>>>>>>>>>>>>>>>>>>>>>>>>>>>>>>>>>>>>>>>>>",
":>>>><j1>>>>>>>>>>>>>>>>>>>>>>>>>>>>>>>>>>>>>>>>>>",
":>>>>>i2>>>>>>>>>>>>>>>>>>>>>>>>>>>>>>>>>>>>>>>>>>",
":>>>>>>>>>>>>>>>>>>>>>>>>>>>>>>>>>>>>>>>22>>>>>>>>",
":>>>>>>>>>>>>>>>>>>>>>>>>>>>>>>>>>>>>>>,k,>>>>>>>>",
":>>>>>>>>>>>>>>>>>>>>>>>>>>>>>>>>>>>>2m[{a}2>>>>>>"
};
