/* XPM */
static char *result[] = {
/* columns rows colors chars-per-pixel */
"50 50 205 2 ",
"   c #46A752",
".  c #48A952",
"X  c #4BAA52",
"o  c #4CAA52",
"O  c #57AE52",
"+  c #55AE54",
"@  c #5FB252",
"#  c #5CB055",
"$  c #62B352",
"%  c #62B453",
"&  c #65B455",
"*  c #6BB652",
"=  c #6DB754",
"-  c #6EB852",
";  c #6FB952",
":  c #77BC54",
">  c #7DBD52",
",  c #82BF52",
"<  c #87C152",
"1  c #88C152",
"2  c #88C252",
"3  c #90C453",
"4  c #91C453",
"5  c #92C653",
"6  c #90C455",
"7  c #91C654",
"8  c #9BC755",
"9  c #9AC853",
"0  c #9BC953",
"q  c #9AC855",
"w  c #96C45A",
"e  c #A5CD53",
"r  c #A6CD53",
"t  c #A7CD53",
"y  c #A8CE53",
"u  c #ACCE53",
"i  c #ADCF53",
"p  c #AECF53",
"a  c #AFCF53",
"s  c #ADCE54",
"d  c #B0CF56",
"f  c #B6CF5E",
"g  c #B0D053",
"h  c #B1D053",
"j  c #B2D053",
"k  c #B4D153",
"l  c #B5D153",
"z  c #B6D152",
"x  c #B7D152",
"c  c #B6D153",
"v  c #B7D352",
"b  c #B7D353",
"n  c #B1D055",
"m  c #B7D355",
"M  c #B7D156",
"N  c #B8D352",
"B  c #B9D352",
"V  c #B8D353",
"C  c #B9D353",
"Z  c #BAD253",
"A  c #BBD253",
"S  c #BAD353",
"D  c #BBD353",
"F  c #BAD452",
"G  c #BAD453",
"H  c #BCD453",
"J  c #BDD453",
"K  c #BED453",
"L  c #BED553",
"P  c #BFD553",
"I  c #B8D254",
"U  c #B8D354",
"Y  c #B9D354",
"T  c #B8D255",
"R  c #B8D355",
"E  c #B9D355",
"W  c #BAD354",
"Q  c #BBD354",
"!  c #B8D356",
"~  c #BCD355",
"^  c #BDD355",
"/  c #BDD356",
"(  c #BED356",
")  c #BED357",
"_  c #B9D454",
"`  c #BAD454",
"'  c #BBD455",
"]  c #B9D456",
"[  c #BAD457",
"{  c #BCD454",
"}  c #BCD554",
"|  c #BCD455",
" . c #BDD456",
".. c #BFD556",
"X. c #BFD656",
"o. c #BFD458",
"O. c #BCD25C",
"+. c #C0D553",
"@. c #C1D553",
"#. c #C1D653",
"$. c #C3D653",
"%. c #C0D655",
"&. c #C3D654",
"*. c #C1D456",
"=. c #C0D457",
"-. c #C1D457",
";. c #C1D35A",
":. c #C0D458",
">. c #C1D458",
",. c #C3D459",
"<. c #C3D559",
"1. c #C2D45A",
"2. c #C3D45A",
"3. c #C3D55A",
"4. c #C5D559",
"5. c #C5D45A",
"6. c #C4D55A",
"7. c #C6D45A",
"8. c #C6D55B",
"9. c #C6D65B",
"0. c #C6D55C",
"q. c #C7D55C",
"w. c #C7D65C",
"e. c #C9D65D",
"r. c #CAD65D",
"t. c #C9D65E",
"y. c #CAD65E",
"u. c #CBD65E",
"i. c #CCD65E",
"p. c #CDD65F",
"a. c #CDD75F",
"s. c #C0D065",
"d. c #CDD660",
"f. c #CED760",
"g. c #CFD760",
"h. c #CFD761",
"j. c #C4D168",
"k. c #C9D26B",
"l. c #CED568",
"z. c #CFD56B",
"x. c #CED46D",
"c. c #D1D762",
"v. c #D1D861",
"b. c #D1D862",
"n. c #D2D862",
"m. c #D3D863",
"M. c #D5D864",
"N. c #D5D865",
"B. c #D6D864",
"V. c #D6D964",
"C. c #D6D865",
"Z. c #D6D965",
"A. c #D7D965",
"S. c #D8D966",
"D. c #D9D966",
"F. c #DAD966",
"G. c #DADA66",
"H. c #DADA67",
"J. c #DCDA66",
"K. c #D4D768",
"L. c #D5D868",
"P. c #D9D968",
"I. c #DAD968",
"U. c #DBD968",
"Y. c #DBD969",
"T. c #DADA68",
"R. c #DCD969",
"E. c #DCDA68",
"W. c #DDDA68",
"Q. c #DCDA69",
"!. c #DEDA68",
"~. c #DFDB69",
"^. c #DEDA6A",
"/. c #DFDA6B",
"(. c #E0DA6A",
"). c #E0DB6A",
"_. c #E1DB6A",
"`. c #E0DA6B",
"'. c #E2DB6A",
"]. c #E0DA6C",
"[. c #E1DB6C",
"{. c #E2DA6C",
"}. c #E3DA6C",
"|. c #E2DB6C",
" X c #E3DB6C",
".X c #E3DA6D",
"XX c #E2DB6D",
"oX c #E3DB6D",
"OX c #E4DB6D",
"+X c #E5DB6E",
"@X c #E5DB6F",
"#X c #E6DB6E",
"$X c #E6DB6F",
"%X c #E5DC6E",
"&X c #E6DC6F",
"*X c #E7DC6F",
"=X c #E8DC6F",
"-X c #E7DB70",
";X c #E9DB70",
":X c #E8DC70",
">X c #E9DC70",
",X c #E9DD70",
"<X c #E9DC71",
"1X c #EADC71",
"2X c #EBDC71",
/* pixels */
"[ ] ] ] ] ] ] ] ] ] ] ] ] ] ] ] ] ] ] ] ] ] ] ] ] ] ] ] ] ] ] ] ] ] ] ] ] ! ..q & 6 X.! ] ] ] ] ] ] ",
"U N N N N v v N N N N N N N N N S { { { D N N z x N N N N N N N N N N N N N N B F B N N N N N N N N ",
"E V V V V G C V V V V V V V V V q.{.|. XD.W C +.+.V V V V V V V V V V V V V V V V V V V V V V V V V ",
"E V V V b j k V V V V V V V V V r.2X2X2X/.} a = : _ ` ` ` ` ` C V V V V V V V V V V V V V C ` W V V ",
"E V b H y o @ C V V V V V V V V t.1X2X2X).{ M j.z.).).).).).^.,.V V V V V V V V C C V V V :.^.D.Q V ",
"E V V C h 2 4 V V V V V V V C V u.1X2X2X).Y >.=X2X2X2X2X2X2X1Xw.C Z Z Z Z C V b c V Z Z C 6.<XXX| V ",
"E V V V C #.P V V V V V V V w.W.[.2X2X2X).Y :.$X2X2X2X2X2X2X1X`.Q.W.W.W.R.e.+.5   w ~.E.Q.).1X|.| V ",
"E V V V V c b V V V V V V V f.2X2X2X2X2X(.Y :.$X2X2X2X2X2X2X2X2X2X2X2X2X2Xb.H r > f 2X2X2X2X2X{.| V ",
"E V V V V V V V V V V V V V a.2X2X2X[.u.9.C :.$X2X2X2X2X2X2X2X2X2X2X2X2X2X{.S.G.J._.2X2X2X.Xi.q.W V ",
"E V V V V V V V V V V V V V a.2X2X2XQ.V V V :.$X2X2X2X2X2X2X2X2X2X2X2X2X2X2X2X2X2X2X2X2X2X(.C V V V ",
"E V V V V V V V V V V V V V a.2X2X2XW.Z V V :.$X2X2X2X2X2X2X2X2X2X2X2X2X2X2X2X2X2X2X2X2X2X).` V V V ",
"E V V V V V V V V V V V V V a.2X2X2XW.Z V V o.$X2X2X2X2X2X2X2X2X2X2X2X2X2X2X2X2X2X2X2X2X2X).` V V V ",
"E V V V V V V V V V V V V V a.2X2X2XW.C  .h.B.>X2X2X2X2X2X2X2X2X2X2X2X2X2X2X2X2X2X2X2X2X2X).` V V V ",
"E V V V V V V V V V V V V V a.2X2X2XW.C 3.>X2X2X2X2X2X2X2X2X2X2X2X2X2X2X2X2X2X2X2X2X2X2X2X).` V V V ",
"E V V V V V V V V V V V <.d.P.2X2X2Xl.@.;.;X2X2X2X2X2X2X2X2X2X2X2X2X2X2X2X2X2X2X2X2X2X2X2X).` V V V ",
"E V V V V V V V V V V V b.2X2X2X2X2XK.J 1.;X2X2X2X2X2X2X2X2X2X2X2X2X2X2X2X2X2X2X2X2X2X2X2X/.` V V V ",
"E V V V V V V V V V V V b.2X2X2X2X2X!.V 2.;X2X2X2X2X2X2X2X2X2X2X2X2X2X2X2X2X2X2X2X2X2X$XD.c.C V V V ",
"E V V V V V V V V V V V b.2X2X2X2X2XR.C 2.;X2X2X2X2X2X2X2X2X2X2X2X2X2X2X2X2X2X2X2X2X2XW.W V V V V V ",
"E V V V V V V V V V V V b.2X2X2X$XR.n.V 2.;X2X2X2X2X2X2X2X2X2X2X2X2X2X2X2X2X2X2X2X2X2XW.Z V V V V V ",
"E V V V V V V V V V V V b.2X2X2XF.W C V <.;X2X2X2X2X2X2X2X2X2X2X2X2X2X2X2X2X2X2X2X2X2XW.Z V V V V V ",
"E V V V V V V V V V V V b.2X2X2XD.V Q <.p.>X2X2X2X2X2X2X2X2X2X2X2X2X2X2X2X2X2X2X2X2X2XW.Z V V V V V ",
"E V V V V V V V V V V V b.2X2X2XD.V 9.-X<X2X2X2X2X2X2X2X2X2X2X2X2X2X2X2X2X2X2X2X2X2X2XI.A V V V V V ",
"E V V V V V V V V V V V b.2X2X2XD.V 0.1X>XoX|.|.|.|. X>X2X2X2X2X2X2X2X2X2X2X2X2X2X@Xx.s.&.c V V V V ",
"E V V V V V V V V V V V b.2X2X2XD.V 8.2X].) | | | | -.}.2X2X2X2X2X2X2X2X2X2X2X2X2XL.8 s G V V V V V ",
"E V V V V V V V b b V V b.2X2X2XD.V 5.OXH.Y V V V V T Y.+X%X%X%X%X>X2X2X2X=X%X%X#XV.+.H V V V V V V ",
"E V V V V V V V H G V V c.2X2X2XD.V Y ) ~ V V V V C % # d *./ ( ) U.2X2X2XM. .( ( ' b b V V V V V V ",
"E V V V V V V c i a ` ~ m.2X2X2XD.V V V V V V V V C 3 < h C V V V C.:X$X*Xg.V V V V V V V V V V V V ",
"E V V V V b J e . @ v. X&X2X2X2XD.V V V V V V V V V P #.C V V V V  .:.:.:.^ V V V V V V V V V V V V ",
"E V V V V V C j 4 9 Z.2X2X2X,X<XA.V V V V V V V V V b c V V V V V V V V V V V V V V V V V V V V V V ",
"E V V V V V V C +.L N.2X2X2XI.2.=.V V V V V V V V V V V V V V V V V V V V V V V V V V V V V V V V V ",
"E V V V V V V V b b N.2X2X2XM.V V V V V V V V V V V V V V V V V V b c V V V V V V V V V V V V V V V ",
"E V V V V V V V V V N.2X2X2XN.V V V V V V V V V V V V V V V V V V P $.C V V V V V V V V V V V V V V ",
"E V V V V V V V V V N.2X2X2XN.V V V V V V V V V V V V V V V V V G , ; u H b V V V V V V V V V V V V ",
"E V V V V V V V V V N.2X2X2XN.V V V V V V V V V V V V V V V V V H - O t J b V V V V V V V V V V V V ",
"E V V V V V V V V V N.2X2X2XN.V V V V V V V V V V V V V V V V V V H L C V V V V V V V V V V V V V V ",
"m V V V V V V V u.Z.{.2X2X2XN.V V V V V V V V V V V V V V V V V V V b V V V V V V V V V V V V V V b ",
"%.V V V V V V V F.2X2X2X2X2XZ.V V V V V V V V V V V V V V V V V V V V V V V V V V V V V V V V V V P ",
"7 l C V V V V V D.2X2X2X^.b.0.V V V V V V V V V V C G V V V V V V V V V V V V V V V V V V V V C c 5 ",
"+ p G V V V V V D.2X2X2Xc.V V V V V V V V V V V V k j b V V V V V V V V V V V V V V V V V V V G h O ",
"n b V V V V V V D.2X2X2Xb.V V V V V V V V V V V G $ X r J b V V V V V V V V V V V V V V V V V V V g ",
"| V V V V V V V D.2X2X2Xc.V V V V V V V V V V V C 5 1 g G V V V V V V V V V V V V V V V V V V V V G ",
"R V V V V C 7.y.(.2X2X2XT.t.t.t.t.t.t.y.9.C V V V P #.C V V V V V V V V V V V V V V V V V V V V V V ",
"E V V V V C E.2X2X2X2X2X1X1X1X1X1X1X1X2X(.` V V V b c V V V V V V V V V V V V V V V V V V V V V V V ",
"E V V V 4.O.k.2X2X2X2X2X2X2X2X2X2X2X2X2X).` V V V V V V V V V V V V V V V V V V V V V V V V V V V V ",
"E V V ` (.2X2X2X2X2X2X2X2X2X2X2X2X2X2X2X/.` V V V V V V V V V V V V V V V V V V V V V V V V V V V V ",
"E V V Y Z.`.'.'.).).).).).).).).).).)./.C.Y V V V V V V V V V V V V V V V V V V V V V V V V V V V V ",
"E V V V Y ` I _ ` ` ` ` ` ` ` ` ` ` ` ` Y V V V V V V V V V V V V V V V V V V V V V V V V V V V V V ",
"E V V V V V V V V V V V V V V V V V V V V V V V V V V V V V V V V V V V V V V V b b V V V V V V V V ",
"E V V V V V V V V V V V V V V V V V V V V V V V V V V V V V V V V V V V V V V G L G V V V V V V V V ",
"E V V V V V V V V V V V V V V V V V V V V V V V V V V V V V V V V V V V V b J 0 * 5 K b V V V V V V "
};
