/* XPM */
static char *result[] = {
/* columns rows colors chars-per-pixel */
"50 50 52 1 ",
"  c #3EA452",
". c #53A747",
"X c #46A752",
"o c #4AAA52",
"O c #55AE53",
"+ c #5FB252",
"@ c #6FB54E",
"# c #65B454",
"$ c #6FB952",
"% c #7CBD52",
"& c #D5BC13",
"* c #E2BD0F",
"= c #EDBD0D",
"- c #FAB709",
"; c #F4BE0B",
": c #FBBD09",
"> c #DFC119",
", c #EFC10F",
"< c #F3C10C",
"1 c #FBC209",
"2 c #F5CA0B",
"3 c #FBC809",
"4 c #EBC414",
"5 c #E4C51B",
"6 c #E3C91D",
"7 c #D6C726",
"8 c #DDC622",
"9 c #DCC925",
"0 c #D6CA2C",
"q c #D9CA28",
"w c #CECC36",
"e c #C7CC3B",
"r c #CACD3A",
"t c #D1CC32",
"y c #CED036",
"u c #E0C720",
"i c #E0CA20",
"p c #88BA44",
"a c #82BF52",
"s c #83C052",
"d c #89C253",
"f c #91C553",
"g c #9AC853",
"h c #BDD14D",
"j c #A6CD53",
"k c #ACCE53",
"l c #B6D253",
"z c #B8D353",
"x c #C5CF43",
"c c #C2D045",
"v c #C1D149",
"b c #C1D553",
/* pixels */
"zzzzzzzbzzzzzzzzzbzzzzzzzzzzzzzbzzzzzzbg#fbzzzzzzz",
"zzzzzzzzzzzzzzzzzzzlzzzzzzzhzzzzzzzzzzzzzzzzzzzzzz",
"zzzzzzzzzzzzzzzzzzzzzzzbbzzzzzzzzzzzzzzzzzzzzlzzzz",
"zzzzzklzlzzzzzzzzzzzzzk@prrt0qtxxzzzzzzzlzzzzzzzzz",
"zzzzko+zzzzzzzzzzzzzhrq&=::1--::;50ezzzzzzzzzzzzzz",
"zzzzldfzzzzzzzzzzzbxu:::::::--:-:::;ivzzlzzzzzzzzz",
"zzzzzbzzzzzzzzzzzvu<:::::-----:-:::::5vfX%blzzzzzz",
"bzzzzlzzzzzzzzzzv5-:::::-=;44::::11:::0j%gzzzzlzzz",
"zzzzzzzzzzzzzzzh51::::,qrhxhhw<:1111:14cbzzzhlzzzz",
"zzzzzzzzzzzzzzzw11:-:4xzzzzzll011::::11czlzzzllzzz",
"zzzzzzzzzzzzzzzq1::::qzzzzzzzzh4111:::1ezzzzzzzzzz",
"zzzzzzzzzzzzzzh51:1:;rzzzzzzzzb6:1::1:1rzzzzzzzzzz",
"zzzzzzzzlzlzzzv;:::::wzzzzllzkg5::::1:,hzzzzzzzzzz",
"zzzzzzzzzzzzzzb411:::5hzzzzlbf.*::::::6hzzzzzzzzzz",
"zzzzzzzzzzzzzzlu::::::5chzzhhw&:::::::yzzzzzzzzzzz",
"zzzzzzzzzzzzzzlu:::::::<4554<1:::::11>hzzzzzzzzzzz",
"lzzzzzzzzzzzzzzr11::1:::::1:11::1::;>hzzzzzzzzzzzz",
"lzzlzzzzzzzzzzzhq1::::::::11::-::2,7zlzzzzzzzzzzzz",
"zzzzzzzzzzzzzzzzh0,11:::11:111<4>yhzzzzlzzzzzzzzzz",
"zzzzzzzzzzzzzzzzzzht96541:1111qhzzlzzzzzzzzzzzzzzz",
"zzzzzzzzzzzzzzzzzzzzzzzh4:1:1:9zzzzzzzzzzzzzzzzzzz",
"zzzzzzzzzzlzzzzzzzzlzzlh5:::::4zzzzzzzzzlljlzzzzzz",
"zzzzzzllzzzzzzzzzzzzzzzz9:::::8lzzzzzzzzzd sblzzzz",
"zzzzhllzzzzzzzzzzzzzzzzz8-::::5zzzzzzzzzzkfkzzzzzz",
"zzzzzzzzzzzzzzzzzzzzzzzh5::1::5zzzzzzzzzzzhzzzzzzz",
"zzzzzzzzzzzzzzzzzzzzzzzx;:::::=hzzzzzzzzzzzzzzzzzz",
"zzzzzzzzkkzzzzzzzzzzzzzc<::1::=hzzzzzzzzzzzzzzzzzz",
"zzzzzzzjo#zzzzzzzzzzzzzc;:1:-:4zzzzzzzzzzzzzzzzzzz",
"zzzzzzzlfgzzzzzzzlzlzzzc::::::4hzzzzzzzzzzzzzzzzzl",
"zzzzzzzzbzzzzzzzr569666u<:::::4vzzzzzzzzzzzzzzzzzz",
"zzzzzzzzlzzzzzzzq11111::::::114hzzlzzzzzzzzzzzzzzz",
"zzzzzzzzzzzzlzzz91111::::::::-4hzzbzzzzzzzzzzzzzzz",
"zzzzzzzzzzzzzzzzq31331:::::-::4hza$kzzzzzzzzzzzzzz",
"zzzzzzzzzzzzzzzzrq86iq85-:1::14hz$Okzzzzzzzzzzzzzz",
"zzzzzzzzzzzzzzzzzzzzzzzh,::1114hzzbzzlzzhzzzzzzzzz",
"zzzzzzzzzzzzzzzzzzzzzzzv,:1111,hzzzzzzzzzzzzzzzzzz",
"bzzzzzzzzzzzzzzlzzzzzzzv=::111<hzzzzzzzzzzzzzzzzlz",
"flzzzzzzzzzzzzzzv66tyehw;:::::4hzzzzzzzzzzzzzzzllf",
"Okzzzzzzzzzlzzzze11112<<::::114zzzzzzzzzzzzzzzzzlO",
"kzzzzzzzzzzzzzzzq133111:11:::-5hzzzzzzzzzzzzzzzzll",
"zzzzzzzzlzzzzzzz01:111::::1::-4zzlzzzzzzzzzzzzlzzz",
"zzzzzzzzzzzzzzzzh7646445<:::::4zzzzzlzzzzzzzzzzzzz",
"zzzzzzzzzzzzzzzzzzzzzzhh5::11:5zzzzzzzzzzzzzzzzzzz",
"zzzzzjO#zzzzzzzlzzzzzzzh,:111:qzzzzzzzzzzzzzzzzzzz",
"zzzzzkadzzlzzzzzzzzzzzzx11::::wzzzzzzzzzzzzzzllhlz",
"zzzzzzbbzzzzzzzzzzzzzzzx,3:::;xzzzlzzzlzzzzzzlzzzz",
"zzzzzzllzzzzzzlzzzzzzzzz9;<,;4zzzzllzzzzzlzzzzzzzz",
"zzzzzzzzzzzzzzzzzzzzzzzzzvvvvbzzzzzlzzzzlzzzzzzzzz",
"zzzzzzzzzzzzzzzzzzzzzzzzzzzzzzzzzzzzzzzzzzzzzzzzzz",
"zzzzzzzzzzzzzzzzzzzzzzzzzzzzzzzzlzzzzzhg$fbzzzzzzz"
};
