/* XPM */
static char *result[] = {
/* columns rows colors chars-per-pixel */
"50 50 220 2 ",
"   c #010607",
".  c #030607",
"X  c #040807",
"o  c #050708",
"O  c #060808",
"+  c #070808",
"@  c #080909",
"#  c #090909",
"$  c #0A0909",
"%  c #0D0B0A",
"&  c #0F0B0B",
"*  c #0F0C0B",
"=  c #170F0E",
"-  c #190F0E",
";  c #1A0F0E",
":  c #281412",
">  c #281413",
",  c #291513",
"<  c #2A1513",
"1  c #301815",
"2  c #3B1B18",
"3  c #401C19",
"4  c #421D1A",
"5  c #421E1A",
"6  c #5F2621",
"7  c #5E2721",
"8  c #5F2722",
"9  c #772F28",
"0  c #7D312A",
"q  c #7E302A",
"w  c #7E312A",
"e  c #82322B",
"r  c #88352C",
"t  c #9B3A31",
"y  c #9C3B32",
"u  c #A93E35",
"i  c #A83F35",
"p  c #B54338",
"a  c #BC453A",
"s  c #C0463B",
"d  c #C8493D",
"f  c #C9493D",
"g  c #CB4A3E",
"h  c #CE4B3E",
"j  c #D14B3F",
"k  c #9B7147",
"l  c #A17947",
"z  c #D24B40",
"x  c #D34C40",
"c  c #D34D40",
"v  c #D34D41",
"b  c #D34E40",
"n  c #D44C40",
"m  c #D54C40",
"M  c #D54D40",
"N  c #D64D41",
"B  c #D74D41",
"V  c #D44E41",
"C  c #D84E41",
"Z  c #D35140",
"A  c #D35041",
"S  c #D05541",
"D  c #D25441",
"F  c #D05B42",
"G  c #D05C42",
"H  c #CE6243",
"J  c #CF6243",
"K  c #CE6544",
"L  c #CE6843",
"P  c #CD6A45",
"I  c #CD6D44",
"U  c #CC6D45",
"Y  c #D06243",
"T  c #CB7346",
"R  c #CC7245",
"E  c #CB7446",
"W  c #CB7546",
"Q  c #C37C47",
"!  c #CA7846",
"~  c #C97A46",
"^  c #CA7B46",
"/  c #CA7A47",
"(  c #C97C47",
")  c #CA7C47",
"_  c #C97E47",
"`  c #3EA452",
"'  c #46A752",
"]  c #48A952",
"[  c #4CAA52",
"{  c #50AC52",
"}  c #57AE52",
"|  c #55AE54",
" . c #5FB252",
".. c #65B452",
"X. c #65B455",
"o. c #68B552",
"O. c #6BB652",
"+. c #6FB952",
"@. c #72BA52",
"#. c #7ABC52",
"$. c #7DBD52",
"%. c #7EBD52",
"&. c #8EB851",
"*. c #BFAB4E",
"=. c #BFAD4D",
"-. c #BFB04E",
";. c #BFB14E",
":. c #BEB24E",
">. c #BEB54E",
",. c #BDB64F",
"<. c #BEB64F",
"1. c #BCBA4F",
"2. c #BDBA4F",
"3. c #BDBA50",
"4. c #C88447",
"5. c #C68548",
"6. c #C78548",
"7. c #C78748",
"8. c #C98048",
"9. c #C88348",
"0. c #C88448",
"q. c #C98548",
"w. c #C88648",
"e. c #C78948",
"r. c #C68D49",
"t. c #C58E49",
"y. c #C58F49",
"u. c #C68F49",
"i. c #C58F4A",
"p. c #C69049",
"a. c #C5914A",
"s. c #C3994A",
"d. c #C29A4B",
"f. c #C39A4B",
"g. c #C4984B",
"h. c #C49A4B",
"j. c #C2A14C",
"k. c #C1A34C",
"l. c #C1A44C",
"z. c #C0A74D",
"x. c #C4A44C",
"c. c #C0A94D",
"v. c #C0AA4D",
"b. c #C0AB4D",
"n. c #C0AD4E",
"m. c #82C052",
"M. c #84C052",
"N. c #88C252",
"B. c #8AC253",
"V. c #91C453",
"C. c #92C653",
"Z. c #94C653",
"A. c #90C455",
"S. c #91C654",
"D. c #99C853",
"F. c #9AC853",
"G. c #9BC953",
"H. c #9AC855",
"J. c #A5CD53",
"K. c #A6CD53",
"L. c #A8CD53",
"P. c #A8CE53",
"I. c #A9CE53",
"U. c #ADCF53",
"Y. c #AECF53",
"T. c #AFCF53",
"R. c #BBC251",
"E. c #BCC150",
"W. c #BBC451",
"Q. c #B8C751",
"!. c #BAC751",
"~. c #BAC851",
"^. c #BACA51",
"/. c #BAC952",
"(. c #B9CD52",
"). c #B8CF52",
"_. c #BACF52",
"`. c #B0D053",
"'. c #B1D053",
"]. c #B2D053",
"[. c #B4D153",
"{. c #B5D153",
"}. c #B6D152",
"|. c #B7D152",
" X c #B6D153",
".X c #B7D252",
"XX c #B7D352",
"oX c #B7D353",
"OX c #B1D055",
"+X c #B7D355",
"@X c #B8D152",
"#X c #B8D252",
"$X c #B8D352",
"%X c #B9D352",
"&X c #B9D253",
"*X c #B8D353",
"=X c #B9D353",
"-X c #BFD152",
";X c #BAD452",
":X c #BAD453",
">X c #BCD453",
",X c #BDD453",
"<X c #BED453",
"1X c #BED553",
"2X c #BFD553",
"3X c #B8D354",
"4X c #B8D355",
"5X c #B9D355",
"6X c #B8D356",
"7X c #B9D456",
"8X c #BAD457",
"9X c #BCD455",
"0X c #BFD556",
"qX c #BFD656",
"wX c #C2CB51",
"eX c #C0D152",
"rX c #C0D553",
"tX c #C1D653",
"yX c #C3D653",
"uX c #C0D655",
/* pixels */
"8X7X7X7X7X7X7X7X7X7X7X7X7X7X7X7X7X7X7X7X7X7X7X7X7X7X7X7X7X7X7X7X7X7X7X7X7X6X0XH.X.A.qX6X7X7X7X7X7X7X",
"3X$X$X$X$XXXXX$X$X$X$X$X$X$X$X$X$X$X$X$X$X$X$X}.|.$X$X$X$X$X$X$X$X$X$X$X$X$X$X%X;X%X$X$X$X$X$X$X$X$X",
"5X*X*X*X*X:X=X*X*X*X*X*X*X*X*X*X*X*X*X*X*X*X=XrXrX*X*X*X*X*X*X*X*X*X*X*X*X*X*X*X*X*X*X*X*X*X*X*X*X*X",
"5X*X*X*XoX].[.*X*X*X*X*X*X*X*X*X*X*X*X*X*X:XT.o.@.oX*X*X*X*X*X*X*X*X*X*X*X*X*X*X*X*X*X*X*X*X*X*X*X*X",
"5X*XoX>XP.[  .=X*X*X*X*X*X*X*X*X*X*X*X*X*X:XT...+.oX*X*X*X*X*X*X*X*X*X*X*X*X*X*X=X=X*X*X*X*X*X*X*X*X",
"5X*X*X=X'.N.V.*X*X*X*X*X*X*X*X*X*X*X&X).).)._.eX-X).).).).).).).).&X*X*X*X*X*XoX XoX*X*X*X*X*X*X*X*X",
"5X*X*X*X=XtX2X*X*X*X*X*X*X*X*X*X*X*X,.E T T T T T T T T T T T T R -.*X*X*XoXrXC.' #.rX X*X*X*X*X*X*X",
"5X*X*X*X*X XoX*X*X*X*X*X*X*X*X#X#X*Xv.c n n n n n n n n n n n n n j.*X#X#X.X>XK.$.D.>XoX*X*X*X*X*X*X",
"5X*X*X*X*X*X*X*X*X*X*X*X*X*X=./ ^ ( U c n n n n n n n n n n n n n P ( ^ ~ z.oX>XyX1XoX*X*X*X*X*X*X*X",
"5X*X*X*X*X*X*X*X*X*X*X*X*X*Xg.n n n n n n n n n n n n n n n n n n n n n n r.*XoX XoX*X*X*X*X*X*X*X*X",
"5X*X*X*X*X*X*X*X*X*X*X*Xb.0.I n n n n n n n n n n n n n n n n n n n n n n i.*X*X*X*X*X*X*X*X*X*X*X*X",
"5X*X*X*X*X*X*X*X*X*X*X*Xr.n n n n n n n n n n n n n n n n N B B B m n n n p.*X*X*X*X*X*X*X*X*X*X*X*X",
"5X*X*X*X*X*X*X*X*X*X*X*Xi.n n n n n n n n n n n n n n n h 9 7 6 8 i N n n U i.b.*X*X*X*X*X*X*X*X*X*X",
"5X*X*X*X*X*X*X*X*X*X*X*Xa.n n n n n n n n n n n n n n m d > . O + 0 C n n n n 9.*X*X*X*X*X*X*X*X*X*X",
"5X*X*X*X*X*X*X*X*X*X;.s.T n n n n n n n n n n n n n n m d < O # $ w C n n n n 6.*X*X*X*X*X*X*X*X*X*X",
"5X*X*X*X*X*X*X*X*X*X0.n n n n n n n n n m C C C B n n m d :   o O 0 C n n n n 6.*X*X*X*X*X*X*X*X*X*X",
"5X*X*X*X*X*X*X*X*X*X6.n n n n n n n n m s e w q r f m n g 6 3 4 5 t N n n n n 6.*X*X*X*X*X*X*X*X*X*X",
"5X*X*X*X*X*X*X*X*X*X6.n n n n n n n n B y * # @ ; p N n n x x x x n n n n n n 6.*X*X*X*X*X*X*X*X*X*X",
"5X*X*X*X*X*X*X*X*X*X6.n n n n n n n n B y & @ + - p N n n n n n n n n n n n n 6.*X*X*X*X*X*X*X*X*X*X",
"5X*X*X*X*X*X*X*X*X*X6.n n n n n n n n B t % o X = p N n n n n n n n n n n n n 6.*X*XoX*X*X*X*X*X*X*X",
"5X*X*X*X*X*X*X*X*X*X6.n n n n n n n n N u 1 < , 2 a M n n n n n n n n n n n n 6.*X:X,X:X*X*X*X*X*X*X",
"5X*X*X*X*X*X*X*X*X*X6.n n n n n n n n n j d d d f z n n n n n n n n n n n n n 6.=X'.K.'.=X*X*X*X*X*X",
"5X*X*X*X*X*X*X*X*X*X6.n n n n n n n n n n m m m m n n n n n n n n n n n n n n 5.tXM.` m.tX X*X*X*X*X",
"5X*X*X*X*X*X*X*X*X*X6.n n n n n n n n n n n n n n n n n n n n n n n n n n n n 0.:XI.Z.I.:X*X*X*X*X*X",
"5X*X*X*X*X*X*X*XoXoX6.n n n n n n n n n n n n n n n n n n n n n n n n n n D F t.*X>XrX>X*X*X*X*X*X*X",
"5X*X*X*X*X*X*X*X>X:X6.n n n n n n n n n n n n n n n n n n n n n n n n n n 7.W./.*XoXoXoX*X*X*X*X*X*X",
"5X*X*X*X*X*X*X XU.T.6.n n n n n n n n n n n n n n n n n n n n n n n n n n u.*X*X*X*X*X*X*X*X*X*X*X*X",
"5X*X*X*X*XoX,XJ.]  .q.n n n n n n n n n n n n n n n n n n n n n n n n n n i.*X*X*X*X*X*X*X*X*X*X*X*X",
"5X*X*X*X*X*X=X].V.F.e.Z A n n n n n n n n n n n n n n n n n n n n n n n n i.*X*X*X*X*X*X*X*X*X*X*X*X",
"5X*X*X*X*X*X*X=XrX1XE.>.8.n n n n n n n n n n n n n n n n n n n n n n n n i.*X*X*X*X*X*X*X*X*X*X*X*X",
"5X*X*X*X*X*X*X*XoXoX*X*Xp.n n n n n n n n n n n n n n n n n n n n n n n n i.*X*X*X*X*X*X*X*X*X*X*X*X",
"5X*X*X*X*X*X*X*X*X*X*X*Xi.n n n n n n n n n n n n n n n n n n n n n n n n i.*X*X*X*X*X*X*X*X*X*X*X*X",
"5X*X*X*X*X*X*X*X*X*X*X*Xi.n n n n n n n n n n n n n n n n n n n n n n v n y.*X*X*X*X*X*X*X*X*X*X*X*X",
"5X*X*X*X*X*X*X*X*X*X*X*Xi.n n n n n n n n n n n n n n n n n n n n n n Q x.1.*X*X*X*X*X*X*X*X*X*X*X*X",
"5X*X*X*X*X*X*X*X*X*X*X*Xi.n n n n n n n n n n n n n n n n n n n n n n h.*X*X*X*X*X*X*X*X*X*X*X*X*X*X",
"+X*X*X*X*X*X*X*X*X*X*X*X<.s.! n n n n n n n n n n n n n n n n n v _ d.3.*X*X*X*X*X*X*X*X*X*X*X*X*XoX",
"uX*X*X*X*X*X*X*X*X*X*X*X*X*Xf.n n n n n n n n n n n n n n n n n n l.*X*X*X*X*X*X*X*X*X*X*X*X*X*X*X2X",
"S.{.=X*X*X*X*X*X*X*X*X*X*X*Xg.n n n n n n n n n n n n n n n b ) a.2.*X*X*X*X*X*X*X*X*X*X*X*X*X=X XC.",
"| Y.:X*X*X*X*X*X*X*X*X*X*X*Xg.n n n n n n n n n n n n n n n A n.*X*X*X*X*X*X*X*X*X*X*X*X*X*X*X:X'.} ",
"OXoX*X*X*X*X*X*X*X*X*X*X*X*Xg.n n n G 4.6.6.6.6.w.l k S n n A b.*X*X*X*X*X*X*X*X*X*X*X*X*X*X*X*X*X`.",
"9X*X*X*X*X*X*X*X*X*X*X*X*X*Xg.n n n R @X*X*X*X*X=XC.&.H n n A b.*X*X*X*X*X*X*X*X*X*X*X*X*X*X*X*X*X:X",
"4X*X*X*X*X*X=X*X*X*X*X*X*X*Xg.n n n T ).*X*X*X*X*X2XwXY n n A b.*X*X*X*X*X*X*X*X*X*X*X*X*X*X*X*X*X*X",
"5X*X*X*X*X*X*X*X*X*X*X*X*X*Xg.n n n R &X*X*X*X*X*XoXQ.J n n A =.*X*X*X*X*X*X*X*X*X*X*X*X*X*X*X*X*X*X",
"5X*X*XoX>XL.{ ..:X*X*X*X*X*Xg.n n n L c.b.*.:.).*X*X~.J n n V a.=.b.*.R.*X*X*X*X*X*X*X*X*X*X*X*X*X*X",
"5X*X*X*X:X`.%.B.=X*X*X*X*X*Xg.n n n c A A b K ~.*X*X~.J n n n V A A V f.*X*X*X*X*X*X*X*X*X*X*X*X*X*X",
"5X*X*X*X*X=XyXrX*X*X*X*X*X*Xg.n n n n n n n J ~.*X*X~.J n n n n n n n g.*X*X*X*X*X*X*X*X*X*X*X*X*X*X",
"5X*X*X*X*X*X XoX*X*X*X*X*X*Xg.n n n n n n n J !.*X*X!.J n n n n n n n g.*X*X*X*X*X*X*X*X*X*X*X*X*X*X",
"5X*X*X*X*X*X*X*X*X*X*X*X*X*Xk.H J J J J J J W ^.*X*X^.W J J J J J J H k.*X*X*X*XoXoX*X*X*X*X*X*X*X*X",
"5X*X*X*X*X*X*X*X*X*X*X*X*X*X(.~.~.~.~.~.~.~.^.&X*X*X&X^.~.~.~.~.~.~.~.(.*X*X*X:X1X:X*X*X*X*X*X*X*X*X",
"5X*X*X*X*X*X*X*X*X*X*X*X*X*X*X*X*X*X*X*X*X*X*X*X*X*X*X*X*X*X*X*X*X*X*X*X*XoX,XG.O.C.<XoX*X*X*X*X*X*X"
};
