/* XPM */
static char *result[] = {
/* columns rows colors chars-per-pixel */
"50 50 87 1 ",
"  c #0E1115",
". c #0F1115",
"X c #0F1215",
"o c #0F1216",
"O c #0F1217",
"+ c #101317",
"@ c #101318",
"# c #101419",
"$ c #111419",
"% c #11151A",
"& c #12151A",
"* c #12151B",
"= c #12161C",
"- c #13161C",
"; c #13171C",
": c #14171D",
"> c #14171E",
", c #14171F",
"< c #14181F",
"1 c #15181F",
"2 c #161920",
"3 c #161921",
"4 c #161922",
"5 c #161A22",
"6 c #171A22",
"7 c #171B23",
"8 c #181B24",
"9 c #181C24",
"0 c #181C25",
"q c #181C26",
"w c #191C26",
"e c #191D26",
"r c #191D27",
"t c #1A1D27",
"y c #1A1E28",
"u c #1A1E29",
"i c #1B1E2A",
"p c #1B1F2A",
"a c #1C1F2A",
"s c #1C202A",
"d c #1C202B",
"f c #1D202B",
"g c #1D202C",
"h c #1D212C",
"j c #1D212D",
"k c #1D212E",
"l c #1E222E",
"z c #1E222F",
"x c #1F232F",
"c c #1F2330",
"v c #202330",
"b c #202430",
"n c #202431",
"m c #202432",
"M c #232832",
"N c #252A32",
"B c #262B32",
"V c #353D36",
"C c #363D36",
"Z c #373E36",
"A c #373F36",
"S c #383F37",
"D c #3D4638",
"F c #404938",
"G c #404939",
"H c #454E39",
"J c #49533A",
"K c #4C573B",
"L c #9FB64E",
"P c #A4BC4E",
"I c #A4BC4F",
"U c #A8C14F",
"Y c #ABC450",
"T c #ACC550",
"R c #ADC650",
"E c #AEC750",
"W c #ADC552",
"Q c #B2CA53",
"! c #B2CC54",
"~ c #B6D052",
"^ c #B7D152",
"/ c #B8D352",
"( c #B8D353",
") c #B8D354",
"_ c #B9D355",
"` c #B9D456",
"' c #BAD457",
/* pixels */
"'``!GnnnnnnnnnnnnnnnnnnnnnnnnnnnnnnnnnnnnnnnnG!```",
")^EPDnnnnnnnnnnnnnnnnnnnnnnnnnnnnnnnnnnnnnnnnDPE^/",
"_EKVNnnnnnnnnnnnnnnnnnnnnnnnnnnnnnnnnnnnnnnnnNVKR(",
"QIVnnnnnnncxxxxxxxxxxxxxxxxxxxxxxxxxxxxxxcnnnnnCY(",
"FDNnnnnnnn9*============================*7nnnnnAY(",
"nnnnnnbccb2 oooooooooooooooooooooooooooo ,cbnnnZU~",
"nnnnnb6:::$oooooooooooooooooooooooooooooo#:6bnnBHJ",
"nnnnnc: XXoooooooooooooooooooooooooooooooo :cnnnnn",
"nnnnnc:Xoooo>trrrrrrrrrrrrrrrrrrrrrrt>ooooo#,7cnnn",
"nnnnnb:Xooo 7mmmmmmmmmmmmmmmmmmmmmmmm7 ooooo *xnnn",
"nnnc92$o1000dnnnnnnnnnnnnnnnnnnnnnnnnd0,ooooo=xnnn",
"nnnx* ootmmmnnnnnnnnnnnnnnnnnnnnnnnnnnm0ooooo=xnnn",
"nnnx=ooormnnnnnnnnnnnnnnnnnnnnnnnnnnnnm0ooooo=xnnn",
"nnnx=oootmnnnnnnnnnnnnnnnnnnnnnnnnnnnnm0oooo *xnnn",
"nnnx=ooo10gnnnnnnnnnnnnnnnnnnnnnnnnnnnm0ooo$29cnnn",
"nnnx* oooX0mmmmmmmmmmmmmmmmmmmmmmmmmmmm0ooX:bnnnnn",
"nnnc7,#ooo1trrrrrrrrrrrrrrrrrrrrrrrrrrt1ooX:cnnnnn",
"nnnnnc: ooooooooooooooooooooooooooooooooXX :cnnnmm",
"nnnnnb6:#oooooooooooooooooooooooooooooo$:::6bnnxiu",
"nnnnnnbc, oooooooooooooooooooooooooooo 2bccbnnnh@O",
"adcnnnnn7*============================*9nnnnnnnh@o",
"+$jmnnnncxxxxxxxxxxxxxxxxxxxxxxxxxxxxxxcnnnnnnmh@o",
"o@yjcnnnnnnnnnnnnnnnnnnnnnnnnnnnnnnnnnnnnnnnncjy@o",
"oo@$dmnnnnnnnnnnnnnnnnnnnnnnnnnnnnnnnnnnnnnnmd$@oo",
"$$o+ykkkkkkkkkkkkkkkkkkkkkkkkkkkkkkkkkkkkkkkky+o$$",
"kd%o@$$$$$$$$$$$$$$$$$$$$$$$$$$$$$$$$$$$$$$$$@o%dk",
"nz-@@@Oooooo+@@@@@@@@oooo@@@@@@@@@@@@@@+oooO@@@-zn",
"nnjhhf-XoooX2hhhhhhhr+oo#ihhhhhhhhhhhhj5ooX-fhhjnn",
"nnnnnn>+Oo++8mnnnnnmd@+o$kmnnnnnnnnnnnm0oO+>nnnnnn",
"nnnnnnhp:X4sknnnnnnnxdr@$knnnnnnnnnnnnm0 :phnnnnnn",
"cvnnnnnn1 0mnnnnnnnnnmh@$jbccnnnnnnnnnm0 1nnnnnnvc",
":<knnnnn1 0mnnnnnnnnnnh@+-::>hnnnnnnnnm0 1nnnnnk<:",
" @hnnnnn< 0nnnnnnnnnnnh@ooXX+pnnnnnnnnn0 <nnnnnh@ ",
"o+:1111<$o*11111111111:+ooooO:111111111*o$<1111:+o",
"oo      ooX    X.      oooooo  XXXX    Xoo     .oo",
"00000000000000,o*00000000000000&ooo,000000000005@o",
"mmmmmmmmmmmmmm0 1nmmmmmmmmmmmmn:Xo 0mmmmmmmmmmmj@o",
"nnnnnnnnnnnnnm0 1nnnnnnnnnnnnnc:o>7dnnnnnnnnnnnh@o",
"mmnnnnnnnnnnnm0 1nnnnnnnnnnnnnc:otmnnnnnnnnnnnmj@o",
"0wlnnnnnnnnnnm0 1nnnnnnnnnnnnnc:ormnnnnnnnnnnlq5@o",
"o@jmmmmmmmmmmm0 1nmmmmmmmmmmmmn:otmmmmmmmmmmmd+ooo",
"o@8trrrrrrrrrt1X=errrrrrrrrrrte&o3trrrrrrrrrt7+ooo",
"XXoooooooooooooXXooooooooooooooXXoooooooooooooXXXX",
"::::@ooooo&:::::::::=ooo+-:::::::::::%o$::::::::::",
"ccbz* oooo0ncccccccnp+Xo$jbcccccccccn6 3bccccccccc",
"nnnc2*==@o0mnnnnnnnnh;&o$knnnnnnnnnnm7 3nnnnnnnnnn",
"nnnncxxx, 0mnnnnnnnnncd@$knnnnnnnnnnm7 3nnnnnnnnnn",
"SVMnnnnn1 5jlnnnnnnnnnh@$knnnnnnnnnlh3 3nnnnnnnMVA",
"WLVnnnnn1X@@8nnnnnnnnnh@$knnnnnnnnn5@+X3nnnnnnnVLT",
"_TAnnnnn1XoX6nnnnnnnnnh@$knnnnnnnnn3 oX3nnnnnnnAT("
};
